<svg width="232" height="151" viewBox="0 0 232 151" fill="none" xmlns="http://www.w3.org/2000/svg">
<path d="M146.419 26.3239H85.4052V124.034H146.419V26.3239Z" fill="#FF5F00"/>
<path d="M91.6896 75.1877C91.682 65.779 93.8573 56.4919 98.0508 48.0293C102.244 39.5666 108.346 32.1501 115.894 26.3411C106.545 19.137 95.3179 14.6572 83.4951 13.4137C71.6723 12.1702 59.7312 14.2132 49.0366 19.3091C38.3419 24.405 29.3252 32.3483 23.0169 42.2311C16.7087 52.1139 13.3634 63.5375 13.3634 75.1963C13.3634 86.8551 16.7087 98.2787 23.0169 108.161C29.3252 118.044 38.3419 125.988 49.0366 131.083C59.7312 136.179 71.6723 138.222 83.4951 136.979C95.3179 135.735 106.545 131.256 115.894 124.052C108.344 118.241 102.24 110.821 98.0469 102.356C93.8533 93.8897 91.6793 84.5992 91.6896 75.1877Z" fill="#EB001B"/>
<path d="M218.435 75.1876C218.434 86.8473 215.088 98.2716 208.779 108.155C202.47 118.038 193.451 125.981 182.756 131.076C172.06 136.171 160.117 138.213 148.294 136.968C136.47 135.722 125.243 131.241 115.894 124.034C123.44 118.22 129.54 110.801 133.734 102.338C137.929 93.8752 140.108 84.5885 140.108 75.179C140.108 65.7695 137.929 56.4828 133.734 48.0197C129.54 39.5566 123.44 32.138 115.894 26.3238C125.243 19.1175 136.47 14.6355 148.294 13.3902C160.117 12.145 172.06 14.1866 182.756 19.2818C193.451 24.377 202.47 32.3201 208.779 42.2032C215.088 52.0864 218.434 63.5107 218.435 75.1704V75.1876Z" fill="#F79E1B"/>
</svg>
